<?xml version="1.0" standalone="no"?>
<!DOCTYPE svg PUBLIC "-//W3C//DTD SVG 20010904//EN"
 "http://www.w3.org/TR/2001/REC-SVG-20010904/DTD/svg10.dtd">
<svg version="1.0" xmlns="http://www.w3.org/2000/svg"
 width="155.000000pt" height="68.000000pt" viewBox="0 0 155.000000 68.000000"
 preserveAspectRatio="xMidYMid meet">
<metadata>
Created by potrace 1.15, written by Peter Selinger 2001-2017
</metadata>
<g transform="translate(0.000000,68.000000) scale(0.100000,-0.100000)"
fill="#000000" stroke="none">
<path d="M657 563 c-4 -3 -7 -48 -7 -99 0 -104 11 -123 45 -81 20 27 45 36 45
18 0 -20 41 -23 61 -5 19 17 20 16 47 -9 47 -45 52 -38 52 78 0 123 -6 128
-68 61 -22 -24 -45 -47 -51 -50 -6 -4 -33 16 -60 44 -51 53 -54 54 -64 43z"/>
</g>
</svg>
